<svg width="24" height="24" viewBox="0 0 24 24" fill="none" xmlns="http://www.w3.org/2000/svg">
<path d="M13 3H11C10 3 8 5 8 6V8C8 10 10 11 11 11H13C14 11 16 10 16 8V6C16 5 14 3 13 3Z" fill="#DFE4EC"/>
<path d="M16 15.5C14 13.5 10 13.5 8 15.5C6 17.5 5 16 5 18V21H19V18C19 16 18 17.5 16 15.5Z" fill="#DFE4EC"/>
<path d="M19 21V22C19.5523 22 20 21.5523 20 21H19ZM5 21H4C4 21.5523 4.44772 22 5 22V21ZM11 4H13V2H11V4ZM11 12H13V10H11V12ZM9 8V6H7V8H9ZM17 8V6H15V8H17ZM9 6C9 6.03415 9.00379 5.91778 9.17839 5.63573C9.33287 5.38618 9.56214 5.10208 9.83211 4.83211C10.1021 4.56214 10.3862 4.33287 10.6357 4.17839C10.9178 4.00379 11.0341 4 11 4V2C10.4659 2 9.95722 2.24621 9.58302 2.47786C9.17632 2.72963 8.77292 3.06286 8.41789 3.41789C8.06286 3.77292 7.72963 4.17632 7.47786 4.58302C7.24621 4.95722 7 5.46585 7 6H9ZM13 4C12.9659 4 13.0822 4.00379 13.3643 4.17839C13.6138 4.33287 13.8979 4.56214 14.1679 4.83211C14.4379 5.10208 14.6671 5.38618 14.8216 5.63573C14.9962 5.91778 15 6.03415 15 6H17C17 5.46585 16.7538 4.95722 16.5221 4.58302C16.2704 4.17632 15.9371 3.77292 15.5821 3.41789C15.2271 3.06286 14.8237 2.72963 14.417 2.47786C14.0428 2.24621 13.5342 2 13 2V4ZM15 8C15 8.62826 14.6968 9.11195 14.2503 9.46913C13.7721 9.85166 13.2368 10 13 10V12C13.7632 12 14.7279 11.6483 15.4997 11.0309C16.3032 10.3881 17 9.37174 17 8H15ZM11 10C10.7632 10 10.2279 9.85166 9.74969 9.46913C9.30321 9.11195 9 8.62826 9 8H7C7 9.37174 7.69679 10.3881 8.5003 11.0309C9.27215 11.6483 10.2368 12 11 12V10ZM8.70711 16.2071C9.47713 15.4371 10.6985 15 12 15C13.3015 15 14.5229 15.4371 15.2929 16.2071L16.7071 14.7929C15.4771 13.5629 13.6985 13 12 13C10.3015 13 8.52287 13.5629 7.29289 14.7929L8.70711 16.2071ZM15.2929 16.2071C15.8704 16.7846 16.4047 17.1371 16.8958 17.3622C17.3751 17.5818 17.7953 17.6671 18.0075 17.7201C18.2715 17.7862 18.1141 17.7867 18.0038 17.635C17.9268 17.5292 18 17.5228 18 18H20C20 17.4772 19.9482 16.9083 19.6212 16.4587C19.2609 15.9632 18.7285 15.8388 18.4925 15.7799C18.2047 15.7079 17.9999 15.6682 17.7292 15.5441C17.4703 15.4254 17.1296 15.2154 16.7071 14.7929L15.2929 16.2071ZM18 18V21H20V18H18ZM19 20H5V22H19V20ZM6 21V18H4V21H6ZM6 18C6 17.5228 6.07319 17.5292 5.99624 17.635C5.88591 17.7867 5.72849 17.7862 5.99254 17.7201C6.20467 17.6671 6.62492 17.5818 7.10415 17.3622C7.59534 17.1371 8.12963 16.7846 8.70711 16.2071L7.29289 14.7929C6.87037 15.2154 6.52966 15.4254 6.27085 15.5441C6.00008 15.6682 5.79533 15.7079 5.50746 15.7799C5.27151 15.8388 4.73909 15.9632 4.37876 16.4587C4.05181 16.9083 4 17.4772 4 18H6Z" fill="#DFE4EC"/>
</svg>
